# xmcd CD database file
#
# Track frame offsets:
#	150
#	32458
#	44728
#	57819
#	76805
#	95793
#	108392
#	131004
#	153863
#	170039
#	189848
#	204181
#	219789
#	237194
#	257015
#	273607
#	295920
#	309442
#
# Disc length: 4375 seconds
#
# Revision: 2
# Processed by: cddbd v1.5.2PL0 Copyright (c) Steve Scherf et al.
# Submitted via: CDex 1.70beta2
#
DISCID=f5111512
DTITLE=ERIC CLAPTON - The Cream Of Clapton
DYEAR=1994
DGENRE=Blues
TTITLE0=Layla
TTITLE1=Badge
TTITLE2=I Feel Free
TTITLE3=Sunshine Of Your Love
TTITLE4=Crossroads
TTITLE5=Strange Brew
TTITLE6=White Room
TTITLE7=Bell Bottom Blues
TTITLE8=Cocaine
TTITLE9=I Shot The Sheriff
TTITLE10=After Midnight
TTITLE11=Swing Low Sweet Chariot
TTITLE12=Lay Down Sally
TTITLE13=Kockin' On Heaven's Door
TTITLE14=Wonderful Tonight
TTITLE15=Let It Grow
TTITLE16=Promises
TTITLE17=I Can't Stand It
EXTD=YEAR: 1994
EXTT0=
EXTT1=
EXTT2=
EXTT3=
EXTT4=
EXTT5=
EXTT6=
EXTT7=
EXTT8=
EXTT9=
EXTT10=
EXTT11=
EXTT12=
EXTT13=
EXTT14=
EXTT15=
EXTT16=
EXTT17=
PLAYORDER=
